<svg class="header__menu-icon-svg" width="28" height="28" viewBox="0 0 28 28" fill="none" xmlns="http://www.w3.org/2000/svg"><path fill-rule="evenodd" clip-rule="evenodd" d="M4.473 8.15263H23.5266C24.0643 8.15263 24.5 7.6777 24.5 7.09194C24.5 6.50618 24.0643 6.03174 23.5266 6.03174H4.473C3.93531 6.03174 3.5 6.50618 3.5 7.09194C3.5 7.6777 3.93531 8.15263 4.473 8.15263ZM19.0765 12.9327H4.25706C3.83886 12.9327 3.50028 13.4076 3.50028 13.9934C3.50028 14.5791 3.83886 15.0536 4.25706 15.0536H19.0765C19.4947 15.0536 19.8336 14.5791 19.8336 13.9934C19.8336 13.4076 19.4947 12.9327 19.0765 12.9327ZM4.47328 19.8337H23.5268C24.0645 19.8337 24.5003 20.3086 24.5003 20.8944C24.5003 21.4802 24.0645 21.9546 23.5268 21.9546H4.47328C3.9356 21.9546 3.50028 21.4802 3.50028 20.8944C3.50028 20.3086 3.9356 19.8337 4.47328 19.8337Z"></path></svg>